<?xml version="1.0" standalone="no"?>
<!DOCTYPE svg PUBLIC "-//W3C//DTD SVG 20010904//EN"
 "http://www.w3.org/TR/2001/REC-SVG-20010904/DTD/svg10.dtd">
<svg version="1.0" xmlns="http://www.w3.org/2000/svg"
 width="1536.000000pt" height="497.000000pt" viewBox="0 0 1536.000000 497.000000"
 preserveAspectRatio="xMidYMid meet">

<g transform="translate(0.000000,497.000000) scale(0.100000,-0.100000)"
fill="#a855f7b3" stroke="none">
<path d="M3025 4640 c-526 -60 -958 -322 -1242 -756 -258 -394 -330 -892 -194
-1354 176 -601 673 -1055 1300 -1187 112 -24 149 -27 331 -27 209 -1 276 6
434 46 338 84 648 270 863 518 128 147 273 380 273 437 0 43 -34 83 -70 83
-16 0 -74 -22 -127 -49 -54 -27 -127 -58 -163 -69 -330 -107 -679 -60 -970
129 -84 55 -244 216 -299 299 -246 379 -238 864 19 1245 133 196 351 366 587
457 31 12 44 23 49 43 9 38 -6 78 -36 92 -48 23 -206 64 -300 79 -121 18 -352
25 -455 14z m-550 -1194 c176 -82 218 -308 85 -459 -67 -77 -213 -105 -311
-61 -53 25 -110 80 -135 132 -27 54 -31 171 -9 230 41 105 150 182 260 182 42
0 75 -7 110 -24z"/>
<path d="M2383 3281 c-62 -39 -81 -123 -44 -191 42 -79 146 -97 206 -37 59 59
57 153 -4 211 -40 39 -112 46 -158 17z"/>
<path d="M4186 4174 c-20 -20 -23 -171 -3 -197 10 -15 38 -17 215 -19 l202 -3
-230 -258 -230 -258 0 -84 c0 -75 2 -85 22 -99 19 -14 72 -16 376 -16 224 0
360 4 373 10 17 9 19 22 19 99 0 126 11 121 -248 121 l-212 0 235 257 235 256
0 84 c0 132 28 123 -389 123 -304 0 -352 -2 -365 -16z"/>
<path d="M3480 3641 c-13 -25 -13 -117 0 -142 10 -17 23 -19 161 -19 l150 0
-23 -29 c-13 -15 -87 -100 -166 -187 l-142 -159 2 -75 3 -75 295 0 295 0 3 71
c4 104 5 104 -184 104 -85 0 -154 2 -154 6 0 3 74 86 165 184 l166 179 -3 78
-3 78 -277 3 c-266 2 -278 2 -288 -17z"/>
<path d="M9762 3351 c-11 -7 -13 -187 -13 -987 0 -538 0 -987 1 -996 0 -17 16
-18 188 -18 133 0 192 4 200 12 9 9 12 242 12 988 0 934 -1 978 -18 993 -16
14 -44 17 -188 17 -93 0 -175 -4 -182 -9z"/>
<path d="M5570 2825 c-195 -38 -336 -127 -444 -280 -98 -137 -136 -265 -136
-457 0 -148 20 -247 74 -363 118 -252 367 -405 661 -405 156 0 299 39 416 115
196 127 303 310 328 562 10 105 -4 275 -27 333 -45 111 -60 143 -99 202 -80
121 -203 214 -346 263 -126 43 -300 55 -427 30z m290 -359 c129 -45 228 -174
248 -324 28 -196 -62 -379 -225 -459 -52 -25 -68 -28 -153 -27 -114 0 -164 19
-241 91 -154 144 -185 385 -73 558 61 94 111 135 200 165 68 23 170 21 244 -4z"/>
<path d="M7395 2825 c-131 -23 -225 -72 -295 -154 l-40 -46 0 75 c0 46 -5 81
-12 88 -8 8 -64 12 -184 12 -147 0 -173 -2 -178 -16 -9 -24 -7 -1407 2 -1422
7 -9 51 -12 188 -10 l179 3 6 435 c6 469 7 480 62 567 60 94 138 134 267 134
126 0 205 -36 248 -116 45 -82 46 -91 51 -565 l6 -455 179 -3 c106 -1 183 1
189 7 13 13 9 916 -4 1001 -33 205 -133 352 -287 422 -104 47 -257 65 -377 43z"/>
<path d="M8781 2828 c-149 -15 -285 -70 -368 -150 -136 -131 -155 -416 -37
-547 40 -45 143 -105 209 -122 58 -15 231 -56 310 -73 218 -47 285 -96 267
-192 -14 -78 -77 -116 -204 -122 -73 -4 -98 -1 -147 17 -74 28 -123 69 -151
125 -33 69 -40 72 -123 54 -40 -9 -110 -24 -157 -33 -47 -9 -92 -20 -100 -24
-67 -34 67 -251 209 -338 194 -120 572 -139 793 -40 145 65 224 165 250 319
14 79 0 205 -28 260 -78 152 -198 214 -544 283 -226 45 -257 58 -276 114 -28
85 35 154 151 166 159 17 253 -26 318 -145 20 -36 4 -36 172 -5 44 8 100 18
125 21 25 4 51 11 58 17 55 44 -101 270 -235 339 -74 38 -184 66 -283 73 -47
4 -94 8 -105 9 -11 2 -58 -1 -104 -6z"/>
<path d="M10945 2821 c-238 -39 -425 -183 -524 -404 -48 -107 -63 -192 -63
-350 0 -112 5 -160 22 -227 85 -333 344 -520 720 -520 210 0 388 59 512 170
66 59 131 152 126 181 -2 16 -34 38 -127 85 -69 35 -130 64 -137 64 -7 0 -29
-23 -50 -51 -116 -159 -360 -196 -540 -83 -76 47 -126 126 -139 219 l-7 45
521 0 c618 0 563 -13 560 130 -8 377 -183 626 -509 722 -73 22 -281 32 -365
19z m271 -321 c76 -27 132 -66 165 -115 25 -39 59 -125 59 -152 0 -10 -66 -13
-345 -13 l-345 0 6 28 c4 15 19 54 34 88 32 72 105 140 177 166 67 24 175 23
249 -2z"/>
<path d="M12590 2821 c-287 -54 -492 -244 -566 -527 -25 -99 -25 -362 1 -454
77 -272 253 -439 525 -500 80 -18 116 -21 230 -17 155 6 242 26 360 85 131 65
284 236 249 278 -6 7 -34 24 -63 38 -28 13 -80 40 -114 60 -35 20 -72 36 -83
36 -10 0 -31 -16 -46 -36 -67 -87 -117 -122 -209 -147 -112 -31 -233 -15 -338
47 -72 42 -128 128 -141 220 l-7 46 521 0 c609 0 561 -9 561 109 0 385 -178
645 -510 743 -73 21 -295 33 -370 19z m260 -317 c69 -20 118 -52 163 -104 37
-44 83 -158 69 -172 -5 -5 -159 -7 -343 -6 l-334 3 3 24 c8 51 53 133 99 179
85 85 216 114 343 76z"/>
<path d="M2082 1104 c-20 -14 -22 -23 -22 -108 0 -58 4 -96 12 -104 9 -9 284
-12 1174 -12 l1163 0 15 22 c11 16 16 46 16 100 0 132 145 118 -1188 118
-1022 0 -1150 -2 -1170 -16z"/>
<path d="M2360 680 c-17 -17 -20 -33 -20 -98 0 -54 5 -84 16 -100 l15 -22 873
0 c833 0 874 1 889 18 26 28 24 182 -1 205 -17 16 -93 17 -885 17 -854 0 -867
0 -887 -20z"/>
</g>
</svg>
