<?xml version="1.0"?>
<svg width="497" height="497" xmlns="http://www.w3.org/2000/svg" xmlns:svg="http://www.w3.org/2000/svg" preserveAspectRatio="xMidYMid meet" version="1.0">

 <g class="layer">
  <title>Layer 1</title>
  <g fill="#a855f7b3" id="svg_1" transform="matrix(0.120606, 0, 0, -0.117596, 79.0386, -0.0714765)">
   <path d="m1224.8,-28.42c-526,-60 -958,-322 -1242,-756c-258,-394 -330,-892 -194,-1354c176,-601 673,-1055 1300,-1187c112,-24 149,-27 331,-27c209,-1 276,6 434,46c338,84 648,270 863,518c128,147 273,380 273,437c0,43 -34,83 -70,83c-16,0 -74,-22 -127,-49c-54,-27 -127,-58 -163,-69c-330,-107 -679,-60 -970,129c-84,55 -244,216 -299,299c-246,379 -238,864 19,1245c133,196 351,366 587,457c31,12 44,23 49,43c9,38 -6,78 -36,92c-48,23 -206,64 -300,79c-121,18 -352,25 -455,14zm-550,-1194c176,-82 218,-308 85,-459c-67,-77 -213,-105 -311,-61c-53,25 -110,80 -135,132c-27,54 -31,171 -9,230c41,105 150,182 260,182c42,0 75,-7 110,-24z" id="svg_2"/>
   <path d="m582.8,-1387.42c-62,-39 -81,-123 -44,-191c42,-79 146,-97 206,-37c59,59 57,153 -4,211c-40,39 -112,46 -158,17z" id="svg_3"/>
   <path d="m2385.8,-494.42c-20,-20 -23,-171 -3,-197c10,-15 38,-17 215,-19l202,-3l-230,-258l-230,-258l0,-84c0,-75 2,-85 22,-99c19,-14 72,-16 376,-16c224,0 360,4 373,10c17,9 19,22 19,99c0,126 11,121 -248,121l-212,0l235,257l235,256l0,84c0,132 28,123 -389,123c-304,0 -352,-2 -365,-16z" id="svg_4"/>
   <path d="m1679.8,-1027.42c-13,-25 -13,-117 0,-142c10,-17 23,-19 161,-19l150,0l-23,-29c-13,-15 -87,-100 -166,-187l-142,-159l2,-75l3,-75l295,0l295,0l3,71c4,104 5,104 -184,104c-85,0 -154,2 -154,6c0,3 74,86 165,184l166,179l-3,78l-3,78l-277,3c-266,2 -278,2 -288,-17z" id="svg_5"/>
   <path d="m281.8,-3564.42c-20,-14 -22,-23 -22,-108c0,-58 4,-96 12,-104c9,-9 284,-12 1174,-12l1163,0l15,22c11,16 16,46 16,100c0,132 145,118 -1188,118c-1022,0 -1150,-2 -1170,-16z" id="svg_6"/>
   <path d="m559.8,-3988.42c-17,-17 -20,-33 -20,-98c0,-54 5,-84 16,-100l15,-22l873,0c833,0 874,1 889,18c26,28 24,182 -1,205c-17,16 -93,17 -885,17c-854,0 -867,0 -887,-20z" id="svg_7"/>
  </g>
 </g>
</svg>